HIERARCHY
ROOT Hips
{
  OFFSET 46.7963 99.1727 32.9207
  CHANNELS 6 Xposition Yposition Zposition Zrotation Xrotation Yrotation
  JOINT spine
  {
    OFFSET 0 8.30104 0.477351
    CHANNELS 3 Zrotation Xrotation Yrotation
    JOINT spine1
    {
      OFFSET 0 10.4565 0
      CHANNELS 3 Zrotation Xrotation Yrotation
      JOINT spine2
      {
        OFFSET 0 10.0192 0
        CHANNELS 3 Zrotation Xrotation Yrotation
        JOINT Neck
        {
          OFFSET 0 25.7235 1.22641
          CHANNELS 3 Zrotation Xrotation Yrotation
          JOINT Head
          {
            OFFSET 0 7.77175 0
            CHANNELS 3 Zrotation Xrotation Yrotation
            End Site
            {
              OFFSET 0 18.812 -6.20394
            }
          }
        }
        JOINT RightShoulder
        {
          OFFSET -4.2188 10.82 -0.587439
          CHANNELS 3 Zrotation Xrotation Yrotation
          JOINT RightArm
          {
            OFFSET 0 14.1914 0
            CHANNELS 3 Zrotation Xrotation Yrotation
            JOINT RightArmRoll
            {
              OFFSET 0 7.16408 0
              CHANNELS 3 Zrotation Xrotation Yrotation
              JOINT RightForeArm
              {
                OFFSET 0 20.8665 0
                CHANNELS 3 Zrotation Xrotation Yrotation
                JOINT RightForeArmRoll
                {
                  OFFSET 0 8.03921 0
                  CHANNELS 3 Zrotation Xrotation Yrotation
                  JOINT RightHand
                  {
                    OFFSET 0 16.133 0
                    CHANNELS 3 Zrotation Xrotation Yrotation
                    End Site
                    {
                      OFFSET 0 0 0
                    }
                  }
                }
              }
            }
          }
        }
        JOINT LeftShoulder
        {
          OFFSET 4.2188 10.82 -0.587439
          CHANNELS 3 Zrotation Xrotation Yrotation
          JOINT LeftArm
          {
            OFFSET 0 14.1914 0
            CHANNELS 3 Zrotation Xrotation Yrotation
            JOINT LeftArmRoll
            {
              OFFSET 0 7.16408 0
              CHANNELS 3 Zrotation Xrotation Yrotation
              JOINT LeftForeArm
              {
                OFFSET 0 20.8665 0
                CHANNELS 3 Zrotation Xrotation Yrotation
                JOINT LeftForeArmRoll
                {
                  OFFSET 0 8.03921 0
                  CHANNELS 3 Zrotation Xrotation Yrotation
                  JOINT LeftHand
                  {
                    OFFSET 0 16.133 0
                    CHANNELS 3 Zrotation Xrotation Yrotation
                    End Site
                    {
                      OFFSET 0 0 0
                    }
                  }
                }
              }
            }
          }
        }
      }
    }
  }
  JOINT RightUpLeg
  {
    OFFSET -7.35773 -1.34921 -1.13181
    CHANNELS 3 Zrotation Xrotation Yrotation
    JOINT RightUpLegRoll
    {
      OFFSET 0 18.9168 0
      CHANNELS 3 Zrotation Xrotation Yrotation
      JOINT RightLeg
      {
        OFFSET 0 -23.4256 0
        CHANNELS 3 Zrotation Xrotation Yrotation
        JOINT RightLegRoll
        {
          OFFSET 0 23.5023 0
          CHANNELS 3 Zrotation Xrotation Yrotation
          JOINT RightFoot
          {
            OFFSET 0 19.5617 0
            CHANNELS 3 Zrotation Xrotation Yrotation
            JOINT RightToeBase
            {
              OFFSET 0 16.3526 0
              CHANNELS 3 Zrotation Xrotation Yrotation
              End Site
              {
                OFFSET 0.00693125 7.91944 -0.912836
              }
            }
          }
        }
      }
    }
  }
  JOINT LeftUpLeg
  {
    OFFSET 7.35773 -1.34921 -1.13181
    CHANNELS 3 Zrotation Xrotation Yrotation
    JOINT LeftUpLegRoll
    {
      OFFSET 0 18.9169 0
      CHANNELS 3 Zrotation Xrotation Yrotation
      JOINT LeftLeg
      {
        OFFSET 0 23.4255 0
        CHANNELS 3 Zrotation Xrotation Yrotation
        JOINT LeftLegRoll
        {
          OFFSET 0 23.7195 0
          CHANNELS 3 Zrotation Xrotation Yrotation
          JOINT LeftFoot
          {
            OFFSET 0 19.3444 0
            CHANNELS 3 Zrotation Xrotation Yrotation
            JOINT LeftToeBase
            {
              OFFSET 0 16.3526 0
              CHANNELS 3 Zrotation Xrotation Yrotation
              End Site
              {
                OFFSET -0.0310629 7.91944 -0.912836
              }
            }
          }
        }
      }
    }
  }
}
MOTION
Frames: 9
Frame Time: 0.00208333
48.2132 88.5576 18.9498 -0.740365 10.6159 -0.182469 0.595735 1.56327 0.147413 1.1876 7.13012 0.198709 1.18789 8.77499 0.178969 -9.84535 -2.87198 -0.250964 7.45729 -15.079 0.203125 55.1695 -4.71215 -2.66539 123.884 33.7678 3.24318 1.74844e-006 -4.21161e-008 -7.66364e-007 7.74928 17.6645 -1.3235 -6.75614e-006 7.91474e-006 -3.00408 8.02936 -4.95116 0.697576 -60.9856 -0.582432 0.625128 -107.734 21.5707 -2.10976 4.96568e-006 -4.0803e-007 4.94294e-007 -12.1955 26.7635 3.815 -2.84706e-007 -2.40772e-005 3 -8.02933 -4.95123 -0.697589 165.739 44.6008 15.1861 -180 3.05139e-005 179.107 167.862 48.8346 -175.728 8.04802e-006 -3.98101e-006 0.875103 -25.7757 72.6462 24.7973 8.39321 28.9444 -3.60746 -161.783 45.1152 -17.2512 4.54188e-006 -4.6773e-006 -0.807184 -10.8146 -52.5366 -4.30648 -4.48238e-006 -7.8031e-006 -0.874281 22.2302 72.074 -23.6519 -8.64752 32.3437 3.73594 
48.2303 88.6957 19.0391 -0.730466 10.5402 -0.199956 0.59544 1.54732 0.144707 1.18675 7.09818 0.193964 1.18707 8.74305 0.174232 -9.92302 -2.75117 -0.228344 7.52962 -15.0669 0.221128 55.1498 -4.6909 -2.64992 123.89 33.8108 3.39401 1.74844e-006 -4.21161e-008 -7.66364e-007 7.63809 17.2972 -1.26079 -6.75614e-006 7.91474e-006 -3.00408 8.02936 -4.95116 0.697576 -61.0416 -0.591744 0.637076 -107.661 21.5317 -2.21761 4.96568e-006 -4.0803e-007 4.94294e-007 -12.1913 26.4936 3.77647 -2.84706e-007 -2.40772e-005 3 -8.02933 -4.95123 -0.697589 165.881 44.299 15.0012 -180 3.05139e-005 179.107 167.941 48.4961 -175.806 8.04802e-006 -3.98101e-006 0.868281 -25.6218 72.5547 24.6622 8.39372 28.9532 -3.60709 -161.938 44.8096 -17.066 4.54188e-006 -4.6773e-006 -0.808096 -10.7862 -52.2166 -4.2566 -4.48238e-006 -7.8031e-006 -0.866023 22.1417 71.9987 -23.5594 -8.64854 32.3586 3.73596 
48.2116 88.819 19.1158 -0.721148 10.4639 -0.217293 0.59511 1.5315 0.142217 1.18587 7.06652 0.189722 1.18622 8.71139 0.17 -9.99745 -2.6304 -0.206057 7.5996 -15.0543 0.238522 55.1337 -4.67003 -2.63497 123.89 33.853 3.54439 1.74844e-006 -4.21161e-008 -7.66364e-007 7.53029 16.9319 -1.19974 -6.75614e-006 7.91474e-006 -3.00408 8.02936 -4.95116 0.697576 -61.0947 -0.601197 0.648756 -107.59 21.4932 -2.32492 4.96568e-006 -4.0803e-007 4.94294e-007 -12.1862 26.2241 3.738 -2.84706e-007 -2.40772e-005 3 -8.02933 -4.95123 -0.697589 166.022 43.9974 14.8174 -180 3.05139e-005 179.107 168.019 48.1583 -175.882 8.04802e-006 -3.98101e-006 0.861498 -25.4687 72.4628 24.5281 8.39424 28.9622 -3.60679 -162.091 44.504 -16.8833 4.54188e-006 -4.6773e-006 -0.809075 -10.7571 -51.8975 -4.20682 -4.48238e-006 -7.8031e-006 -0.857876 22.0544 71.9238 -23.4679 -8.64934 32.3719 3.73515 
48.2084 88.9378 19.1891 -0.712549 10.387 -0.234458 0.594743 1.51584 0.14 1.18497 7.03518 0.186103 1.18534 8.68005 0.166392 -10.0677 -2.50997 -0.184188 7.66641 -15.0413 0.25516 55.1222 -4.64967 -2.62067 123.882 33.8943 3.69441 1.74844e-006 -4.21161e-008 -7.66364e-007 7.42655 16.5674 -1.14031 -6.75614e-006 7.91474e-006 -3.00408 8.02936 -4.95116 0.697576 -61.1441 -0.610771 0.660072 -107.522 21.4555 -2.43115 4.96568e-006 -4.0803e-007 4.94294e-007 -12.1802 25.955 3.69961 -2.84706e-007 -2.40772e-005 3 -8.02933 -4.95123 -0.697589 166.162 43.6959 14.6348 -180 3.05139e-005 179.107 168.098 47.8212 -175.958 8.04802e-006 -3.98101e-006 0.85475 -25.3162 72.3706 24.395 8.39479 28.9716 -3.60657 -162.241 44.1986 -16.703 4.54188e-006 -4.6773e-006 -0.81012 -10.7272 -51.5792 -4.15711 -4.48238e-006 -7.8031e-006 -0.849843 21.9684 71.8493 -23.3776 -8.64991 32.3836 3.73337 
48.2025 89.0673 19.27 -0.704802 10.3096 -0.251429 0.594339 1.50038 0.138112 1.18406 7.00423 0.183224 1.18444 8.6491 0.163525 -10.1328 -2.39019 -0.162821 7.72921 -15.0275 0.270895 55.1159 -4.62994 -2.60718 123.865 33.9351 3.84421 1.74844e-006 -4.21161e-008 -7.66364e-007 7.32752 16.2026 -1.0825 -6.75614e-006 7.91474e-006 -3.00408 8.02936 -4.95116 0.697576 -61.1891 -0.620445 0.670927 -107.46 21.4187 -2.53578 4.96568e-006 -4.0803e-007 4.94294e-007 -12.1734 25.686 3.66132 -2.84706e-007 -2.40772e-005 3 -8.02933 -4.95123 -0.697589 166.303 43.3946 14.453 -180 3.05139e-005 179.107 168.177 47.485 -176.033 8.04802e-006 -3.98101e-006 0.848033 -25.1643 72.278 24.2629 8.39538 28.9813 -3.60645 -162.388 43.8934 -16.525 4.54188e-006 -4.6773e-006 -0.811234 -10.6962 -51.2618 -4.10742 -4.48238e-006 -7.8031e-006 -0.841925 21.8836 71.7753 -23.2884 -8.6502 32.3932 3.73051 
48.2113 89.1997 19.3622 -0.698045 10.2316 -0.268185 0.593896 1.48513 0.136611 1.18313 6.97373 0.181203 1.18353 8.6186 0.161517 -10.1917 -2.27135 -0.142039 7.78719 -15.0128 0.285579 55.1157 -4.61097 -2.59463 123.838 33.9753 3.99388 1.74844e-006 -4.21161e-008 -7.66364e-007 7.23387 15.8364 -1.02631 -6.75614e-006 7.91474e-006 -3.00408 8.02936 -4.95116 0.697576 -61.229 -0.630199 0.681227 -107.402 21.3829 -2.63826 4.96568e-006 -4.0803e-007 4.94294e-007 -12.1659 25.417 3.62314 -2.84706e-007 -2.40772e-005 3 -8.02933 -4.95123 -0.697589 166.443 43.0935 14.2719 -180 3.05139e-005 179.106 168.256 47.1495 -176.107 8.04802e-006 -3.98101e-006 0.841346 -25.0129 72.1849 24.1315 8.396 28.9914 -3.60647 -162.531 43.5885 -16.3494 4.54188e-006 -4.6773e-006 -0.812418 -10.6642 -50.9455 -4.05773 -4.48238e-006 -7.8031e-006 -0.834126 21.8 71.7017 -23.2003 -8.65018 32.4007 3.72643 
48.2042 89.3166 19.4411 -0.692233 10.153 -0.285016 0.593407 1.47006 0.13544 1.1822 6.94357 0.180024 1.1826 8.58844 0.160352 -10.2456 -2.15331 -0.121833 7.84137 -14.9966 0.299267 55.1209 -4.59258 -2.58283 123.803 34.0154 4.14272 1.74844e-006 -4.21161e-008 -7.66364e-007 7.14433 15.4697 -0.971814 -6.75614e-006 7.91474e-006 -3.00408 8.02936 -4.95116 0.697576 -61.2641 -0.640458 0.691264 -107.349 21.3485 -2.73938 4.96568e-006 -4.0803e-007 4.94294e-007 -12.1571 25.1476 3.58482 -2.84706e-007 -2.40772e-005 3 -8.02933 -4.95123 -0.697589 166.583 42.7926 14.0913 -180 3.05139e-005 179.106 168.335 46.8147 -176.181 8.04802e-006 -3.98101e-006 0.834714 -24.8618 72.0912 24.0009 8.39665 29.0019 -3.60658 -162.672 43.2838 -16.1763 4.54188e-006 -4.6773e-006 -0.813672 -10.6311 -50.6301 -4.00796 -4.48238e-006 -7.8031e-006 -0.826446 21.7177 71.6285 -23.1133 -8.6499 32.4063 3.72125 
48.1848 89.4297 19.4985 -0.68718 10.0738 -0.302161 0.592867 1.45508 0.134494 1.18126 6.91361 0.179541 1.18167 8.55849 0.159884 -10.2962 -2.0356 -0.102101 7.89345 -14.9784 0.312168 55.1296 -4.5745 -2.57149 123.762 34.0555 4.29006 1.74844e-006 -4.21161e-008 -7.66364e-007 7.05714 15.1046 -0.919081 -6.75614e-006 7.91474e-006 -3.00408 8.02936 -4.95116 0.697576 -61.2957 -0.651557 0.701365 -107.3 21.3153 -2.84034 4.96568e-006 -4.0803e-007 4.94294e-007 -12.1469 24.8774 3.54614 -2.84706e-007 -2.40772e-005 3 -8.02933 -4.95123 -0.697589 166.724 42.4919 13.9112 -180 3.05139e-005 179.105 168.414 46.4804 -176.254 8.04802e-006 -3.98101e-006 0.828161 -24.7109 71.9969 23.8708 8.39732 29.0126 -3.60677 -162.81 42.979 -16.0056 4.54188e-006 -4.6773e-006 -0.814995 -10.5973 -50.3155 -3.95808 -4.48238e-006 -7.8031e-006 -0.818885 21.6364 71.5558 -23.0273 -8.64941 32.4103 3.71519 
48.1899 89.5615 19.5828 -0.682805 9.99407 -0.319519 0.592281 1.4402 0.133753 1.18033 6.88386 0.179672 1.18073 8.52873 0.160031 -10.3437 -1.91806 -0.0827826 7.94362 -14.9587 0.324368 55.1417 -4.55671 -2.56057 123.715 34.0955 4.43609 1.74844e-006 -4.21161e-008 -7.66364e-007 6.97225 14.7417 -0.868042 -6.75614e-006 7.91474e-006 -3.00408 8.02936 -4.95116 0.697576 -61.3241 -0.66334 0.711482 -107.254 21.2833 -2.94123 4.96568e-006 -4.0803e-007 4.94294e-007 -12.1353 24.6068 3.50719 -2.84706e-007 -2.40772e-005 3 -8.02933 -4.95123 -0.697589 166.864 42.1913 13.7318 -180 3.05138e-005 179.104 168.494 46.1466 -176.327 8.04802e-006 -3.98101e-006 0.821678 -24.5604 71.9022 23.7414 8.39801 29.0236 -3.60702 -162.945 42.6743 -15.8372 4.54188e-006 -4.6773e-006 -0.816385 -10.5627 -50.0018 -3.90814 -4.48238e-006 -7.8031e-006 -0.81144 21.5562 71.4834 -22.9424 -8.64873 32.4128 3.70829 
